<?xml version="1.0" standalone="no"?>
<!DOCTYPE svg PUBLIC "-//W3C//DTD SVG 20010904//EN"
 "http://www.w3.org/TR/2001/REC-SVG-20010904/DTD/svg10.dtd">
<svg version="1.0" xmlns="http://www.w3.org/2000/svg"
 width="176.000000pt" height="177.000000pt" viewBox="0 0 176.000000 177.000000"
 preserveAspectRatio="xMidYMid meet">

<g transform="translate(0.000000,177.000000) scale(0.100000,-0.100000)"
fill="#000000" stroke="none">
<path d="M309 1601 c-105 -22 -218 -111 -266 -209 -31 -64 -41 -166 -23 -241
16 -69 79 -162 137 -206 146 -107 331 -94 466 34 138 131 156 326 43 474 -85
112 -235 174 -357 148z m177 -106 c94 -38 164 -147 164 -255 0 -247 -298 -371
-473 -196 -48 48 -70 101 -75 179 -7 108 41 200 134 258 61 37 176 44 250 14z"/>
<path d="M1300 1595 c-107 -30 -200 -110 -249 -214 -22 -47 -26 -70 -26 -141
0 -76 4 -93 32 -151 39 -79 111 -150 189 -186 157 -71 346 -13 444 137 47 74
64 141 58 231 -16 215 -244 380 -448 324z m196 -100 c18 -7 51 -30 74 -52 146
-131 109 -373 -70 -457 -63 -29 -178 -28 -236 2 -233 121 -191 473 63 520 55
11 124 5 169 -13z"/>
<path d="M858 1327 c-11 -9 -26 -62 -47 -170 -17 -86 -31 -168 -31 -181 0 -45
21 -73 111 -151 49 -42 89 -81 89 -85 0 -11 -231 -190 -245 -190 -6 0 -18 37
-29 82 -25 111 -51 138 -134 138 -32 0 -79 3 -104 6 -50 7 -78 -11 -78 -50 0
-39 29 -53 120 -60 46 -4 87 -11 90 -17 4 -5 17 -50 30 -100 25 -97 83 -206
118 -225 49 -25 77 -7 250 158 92 87 175 175 185 194 16 31 16 37 2 63 -8 16
-75 78 -150 138 -95 77 -135 114 -135 129 0 12 11 76 25 144 30 148 30 141 5
168 -23 25 -47 28 -72 9z"/>
<path d="M514 312 c-44 -28 -68 -83 -54 -126 13 -40 45 -72 87 -87 63 -22 143
44 143 119 0 23 -10 43 -33 68 -41 45 -96 55 -143 26z"/>
</g>
</svg>
