<?xml version="1.0" standalone="no"?>
<!DOCTYPE svg PUBLIC "-//W3C//DTD SVG 20010904//EN"
 "http://www.w3.org/TR/2001/REC-SVG-20010904/DTD/svg10.dtd">
<svg version="1.0" xmlns="http://www.w3.org/2000/svg"
 width="176.000000pt" height="176.000000pt" viewBox="0 0 176.000000 176.000000"
 preserveAspectRatio="xMidYMid meet">

<g transform="translate(0.000000,176.000000) scale(0.100000,-0.100000)"
fill="#000000" stroke="none">
<path d="M1049 1728 c-73 -42 -99 -135 -56 -199 70 -104 200 -105 260 -1 75
129 -75 275 -204 200z"/>
<path d="M840 1390 c-173 -23 -223 -34 -252 -54 -33 -22 -167 -254 -168 -288
0 -25 40 -58 71 -58 39 0 80 39 118 110 45 84 64 100 123 100 26 0 48 -4 48
-9 0 -5 -28 -72 -61 -148 -34 -76 -71 -163 -82 -194 l-21 -55 23 -47 c16 -33
58 -79 148 -159 69 -62 136 -121 149 -131 13 -10 24 -28 24 -38 0 -11 -36 -83
-81 -159 -89 -153 -97 -187 -58 -225 38 -37 74 -37 111 0 37 37 208 340 215
380 8 49 -27 101 -146 220 -56 55 -101 107 -101 117 0 26 191 338 207 338 8 0
46 -18 84 -40 38 -23 88 -47 111 -56 52 -18 70 -8 130 74 23 31 68 92 101 134
71 95 81 135 44 172 -35 35 -76 34 -109 -1 -14 -16 -49 -63 -78 -105 -29 -43
-57 -78 -63 -78 -5 0 -58 36 -117 80 -59 44 -127 89 -152 100 -55 24 -133 31
-218 20z"/>
<path d="M530 582 c-50 -124 -111 -204 -245 -322 -72 -63 -117 -111 -121 -127
-13 -52 46 -113 97 -100 13 3 94 75 180 159 126 124 166 170 208 241 l53 89
-24 16 c-31 21 -77 71 -97 104 l-17 27 -34 -87z"/>
</g>
</svg>
