<?xml version="1.0" standalone="no"?>
<!DOCTYPE svg PUBLIC "-//W3C//DTD SVG 20010904//EN"
 "http://www.w3.org/TR/2001/REC-SVG-20010904/DTD/svg10.dtd">
<svg version="1.0" xmlns="http://www.w3.org/2000/svg"
 width="177.000000pt" height="178.000000pt" viewBox="0 0 177.000000 178.000000"
 preserveAspectRatio="xMidYMid meet">

<g transform="translate(0.000000,178.000000) scale(0.100000,-0.100000)"
fill="#000000" stroke="none">
<path d="M570 1404 c-19 -3 -123 -16 -230 -30 -173 -22 -197 -28 -212 -47 -14
-18 -15 -23 -3 -25 8 -2 115 9 237 23 264 32 434 31 668 -6 152 -24 418 -31
472 -13 26 9 26 10 9 30 -16 21 -22 21 -102 13 -92 -9 -210 -1 -440 31 -146
21 -335 32 -399 24z"/>
<path d="M390 1234 c-91 -13 -205 -28 -253 -32 -82 -6 -90 -9 -105 -34 -9 -15
-14 -29 -12 -31 9 -7 208 12 362 35 193 28 410 30 548 5 190 -34 372 -48 493
-37 62 5 129 13 150 16 l37 6 -17 30 c-15 24 -23 28 -43 24 -14 -4 -97 -9
-185 -12 -140 -5 -183 -2 -345 21 -268 38 -424 41 -630 9z"/>
<path d="M535 1094 c-133 -21 -383 -54 -409 -55 -21 -1 -25 -3 -11 -6 38 -10
224 -101 262 -129 108 -80 165 -141 291 -308 158 -210 261 -321 333 -361 46
-25 58 -27 118 -22 112 10 144 24 462 206 70 40 136 82 147 94 32 35 36 69 12
100 -37 46 -82 38 -221 -39 -141 -79 -238 -113 -340 -121 -75 -6 -76 -5 -114
28 -53 47 -128 164 -163 257 -55 144 -54 208 8 289 l38 51 -42 6 c-55 8 -333
16 -371 10z"/>
<path d="M1104 1024 c-25 -37 -24 -120 1 -163 11 -19 37 -48 58 -65 35 -28 46
-31 107 -31 61 0 72 3 106 31 21 16 46 42 57 56 24 33 33 105 18 151 l-12 36
-102 -2 c-56 -1 -128 2 -159 6 -55 8 -57 7 -74 -19z"/>
</g>
</svg>
