<?xml version="1.0" standalone="no"?>
<!DOCTYPE svg PUBLIC "-//W3C//DTD SVG 20010904//EN"
 "http://www.w3.org/TR/2001/REC-SVG-20010904/DTD/svg10.dtd">
<svg version="1.0" xmlns="http://www.w3.org/2000/svg"
 width="177.000000pt" height="178.000000pt" viewBox="0 0 177.000000 178.000000"
 preserveAspectRatio="xMidYMid meet">

<g transform="translate(0.000000,178.000000) scale(0.100000,-0.100000)"
fill="#000000" stroke="none">
<path d="M980 1404 c-19 -3 -100 -14 -180 -24 -238 -33 -348 -40 -439 -31 -80
8 -86 8 -102 -13 -17 -20 -17 -21 9 -30 54 -18 320 -11 472 13 234 37 404 38
668 6 122 -14 229 -25 237 -23 12 2 11 7 -3 25 -15 19 -40 25 -217 48 -197 26
-376 38 -445 29z"/>
<path d="M970 1253 c-14 -2 -113 -15 -220 -29 -167 -23 -217 -25 -350 -20 -85
3 -166 8 -180 12 -20 4 -28 0 -43 -24 l-17 -30 37 -6 c21 -3 88 -11 150 -16
121 -11 303 3 493 37 138 25 355 23 548 -5 154 -23 353 -42 362 -35 2 2 -3 16
-12 31 -15 25 -23 28 -100 34 -46 3 -165 18 -265 32 -165 24 -327 31 -403 19z"/>
<path d="M975 1095 c-11 -2 -50 -7 -87 -10 l-67 -6 39 -52 c62 -81 64 -145 8
-289 -35 -93 -110 -210 -163 -257 -38 -33 -39 -34 -114 -28 -102 8 -199 42
-340 121 -139 77 -184 85 -221 39 -24 -31 -20 -65 12 -100 11 -12 77 -54 147
-94 318 -182 350 -196 462 -206 60 -5 72 -3 118 22 72 40 175 151 333 361 126
167 183 228 291 308 38 28 224 119 262 129 14 3 10 5 -12 6 -17 0 -109 13
-205 27 -155 23 -409 39 -463 29z"/>
<path d="M540 1039 c-36 -4 -97 -5 -136 -2 l-72 6 -12 -38 c-16 -48 -8 -120
17 -153 11 -14 36 -40 57 -56 34 -28 45 -31 106 -31 61 0 72 3 107 31 54 44
77 88 77 150 0 61 -24 105 -57 103 -12 -1 -51 -5 -87 -10z"/>
</g>
</svg>
