<svg width="30.000000pt" height="30.000000pt" viewBox="0 0 30.000000 30.000000"
     preserveAspectRatio="xMidYMid meet">
<g transform="translate(0.000000,0.000000) scale(0.01500,0.01500)"
   stroke="none">
<path d="M309 1601 c-105 -22 -218 -111 -266 -209 -31 -64 -41 -166 -23 -241
16 -69 79 -162 137 -206 66 -49 168 -79 243 -72 230 20 398 273 320 480 -65
171 -249 282 -411 248z m116 -92 c261 -48 309 -397 71 -521 -58 -30 -173 -31
-236 -2 -170 80 -215 309 -87 442 46 47 90 72 145 82 26 4 47 8 48 9 0 0 27
-4 59 -10z"/>
<path d="M1300 1595 c-107 -30 -200 -110 -249 -214 -22 -47 -26 -70 -26 -146
0 -80 3 -97 29 -148 37 -71 118 -150 192 -184 157 -71 346 -13 444 137 47 74
64 141 58 231 -16 215 -244 380 -448 324z m197 -101 c51 -20 119 -90 143 -146
27 -63 25 -171 -5 -232 -79 -163 -299 -205 -432 -83 -142 130 -120 346 45 448
59 37 175 43 249 13z"/>
<path d="M830 1318 c-25 -27 -25 -20 5 -168 14 -68 25 -132 25 -144 0 -15 -40
-52 -135 -129 -75 -60 -142 -122 -150 -138 -14 -26 -14 -32 2 -63 10 -19 93
-107 185 -194 173 -165 201 -183 250 -158 35 19 93 128 118 225 13 50 26 95
30 100 3 6 44 13 90 17 91 7 120 21 120 60 0 39 -28 57 -78 50 -25 -3 -72 -6
-104 -6 -83 0 -109 -27 -134 -138 -11 -45 -23 -82 -29 -82 -14 0 -245 179
-245 190 0 4 40 43 89 85 90 78 111 106 111 151 0 13 -14 95 -31 181 -31 158
-41 182 -81 183 -10 0 -26 -10 -38 -22z"/>
<path d="M1144 320 c-35 -14 -74 -69 -74 -103 0 -74 80 -139 143 -118 42 15
74 47 87 87 28 83 -72 168 -156 134z"/>
</g>
        </svg>
